<svg xmlns="http://www.w3.org/2000/svg" width="337" height="123" viewBox="0 0 337 123" fill="none"><path d="M187.14 5.10025H170.619V97.3705H187.14V5.10025Z" fill="#000729"></path><path d="M336.647 5.10025H320.126V97.3705H336.647V5.10025Z" fill="#000729"></path><path d="M102.537 80.8571V5.10025H86.0161V97.3779H87.0194H102.537H154.765V80.8571H102.537Z" fill="#000729"></path><path d="M257.075 100.446L258.606 99.2892C258.606 99.2892 258.642 99.2672 258.657 99.2525C259.704 98.447 260.927 97.8904 262.223 97.6561C284.573 93.5406 301.423 73.7171 300.859 50.049C300.281 25.407 280.487 5.12953 255.867 3.98714C228.742 2.72758 206.356 24.3452 206.356 51.1914C206.356 74.3396 223.001 93.5845 244.97 97.6488C246.281 97.8905 247.511 98.447 248.573 99.2599C248.573 99.2599 248.58 99.2599 248.588 99.2672L250.155 100.454C251.795 101.698 251.795 104.166 250.155 105.411L248.134 106.942C246.047 108.524 244.706 110.94 244.604 113.554C244.604 113.672 244.604 113.789 244.604 113.906C244.604 118.886 248.639 122.921 253.619 122.921C258.598 122.921 262.633 118.886 262.633 113.906C262.633 113.789 262.633 113.672 262.633 113.554C262.531 110.933 261.198 108.524 259.104 106.942L257.082 105.411C255.442 104.166 255.442 101.698 257.082 100.454L257.075 100.446ZM222.994 51.1841C222.994 33.6454 236.702 19.4314 253.611 19.4314C270.52 19.4314 284.229 33.6454 284.229 51.1841C284.229 68.7228 270.52 82.9368 253.611 82.9368C236.702 82.9368 222.994 68.7228 222.994 51.1841Z" fill="#000729"></path><path d="M46.0766 78.3378C45.8203 71.6446 42.4004 65.4713 37.0619 61.4216L29.9732 56.0538C26.7437 53.6079 26.7437 48.7528 29.9732 46.2996L37.0619 40.9318C42.4004 36.8895 45.8276 30.7088 46.0766 24.0156C46.0912 23.7226 46.0912 23.4224 46.0912 23.1221C46.0912 10.3947 35.773 0.0765381 23.0456 0.0765381C10.3182 0.0765381 0 10.3947 0 23.1221C0 23.4224 -2.45797e-06 23.7153 0.0146436 24.0156C0.27095 30.7088 3.69081 36.8821 9.02931 40.9318L16.118 46.2996C19.3475 48.7454 19.3475 53.6006 16.118 56.0538L9.02931 61.4216C3.69081 65.4639 0.263627 71.6446 0.0146436 78.3378C-2.45797e-06 78.6308 0 78.931 0 79.2313C0 91.9587 10.3182 102.277 23.0456 102.277C35.773 102.277 46.0912 91.9587 46.0912 79.2313C46.0912 78.931 46.0912 78.6381 46.0766 78.3378Z" fill="#000729"></path></svg>