<svg xmlns="http://www.w3.org/2000/svg" width="122" height="122" viewBox="0 0 122 122" fill="none"><path d="M114.059 0H7.94161C3.55562 0 0 3.5555 0 7.94149V114.059C0 118.444 3.55562 122 7.94161 122H114.059C118.445 122 122 118.444 122 114.059V7.94149C122 3.5555 118.445 0 114.059 0Z" fill="#FFBE00"></path><path d="M81.4133 85.0797C81.1835 79.146 78.1568 73.6619 73.4119 70.0757L67.1285 65.3207C64.2616 63.153 64.2616 58.8476 67.1285 56.67L73.4119 51.915C78.1469 48.3288 81.1835 42.8547 81.4133 36.911C81.4133 36.6513 81.4233 36.3816 81.4233 36.1218C81.4233 24.8339 72.273 15.6836 60.9851 15.6836C49.6971 15.6836 40.5469 24.8339 40.5469 36.1218C40.5469 36.3816 40.5469 36.6513 40.5569 36.911C40.7866 42.8447 43.8134 48.3288 48.5584 51.915L54.8416 56.67C57.7085 58.8377 57.7085 63.143 54.8416 65.3207L48.5584 70.0757C43.8234 73.6619 40.7866 79.136 40.5569 85.0797C40.5569 85.3394 40.5469 85.6091 40.5469 85.8689C40.5469 97.1568 49.6971 106.307 60.9851 106.307C72.273 106.307 81.4233 97.1568 81.4233 85.8689C81.4233 85.6091 81.4233 85.3394 81.4133 85.0797Z" fill="#000729"></path></svg>