<svg width="200" height="200" viewBox="0 0 200 200" fill="none" xmlns="http://www.w3.org/2000/svg">
<g clip-path="url(#clip0_9_12)">
<rect width="200" height="200" rx="5" fill="#3459E6"/>
<path d="M99.768 168.2C92.168 168.2 85.8346 166.733 80.768 163.8C75.7013 160.867 72.7013 156.333 71.768 150.2V149C70.7013 150.467 69.4346 152.2 67.968 154.2C66.6346 156.2 65.168 157.867 63.568 159.2C62.1013 160.667 60.568 161.4 58.968 161.4C58.7013 161.4 57.9013 161.267 56.568 161C55.368 160.733 54.168 160.4 52.968 160C51.9013 159.6 51.3013 159.133 51.168 158.6C50.768 156.067 51.368 152.467 52.968 147.8C54.7013 143 56.9013 137.733 59.568 132C62.368 126.267 65.2346 120.533 68.168 114.8C71.2346 109.067 74.0346 103.933 76.568 99.4C79.1013 94.7333 80.9013 91.2 81.968 88.8C82.768 87.3333 83.3013 86.1333 83.568 85.2C83.8346 84.1333 83.968 83.3333 83.968 82.8C83.968 82 83.8346 81.3333 83.568 80.8C83.8346 79.2 84.768 77.0667 86.368 74.4C88.1013 71.7333 90.2346 69.0667 92.768 66.4C95.3013 63.7333 98.0346 61.5333 100.968 59.8C103.901 57.9333 106.635 57 109.168 57C109.968 57 111.168 57.2667 112.768 57.8C114.501 58.2 116.101 58.8667 117.568 59.8C119.168 60.7333 120.168 62.0667 120.568 63.8C120.701 64.2 120.768 64.6 120.768 65C120.768 65.4 120.635 65.6 120.368 65.6C120.101 65.6 119.701 65.5333 119.168 65.4C118.768 65.1333 118.435 65 118.168 65C115.101 65 111.768 66.4667 108.168 69.4C104.568 72.3333 100.835 76.2667 96.968 81.2C93.2346 86.1333 89.568 91.5333 85.968 97.4C82.368 103.267 78.9013 109.2 75.568 115.2C72.368 121.067 69.568 126.533 67.168 131.6C64.768 136.533 62.9013 140.533 61.568 143.6C60.5013 146.533 59.968 148.6 59.968 149.8C59.968 151.667 60.7013 152.6 62.168 152.6C64.0346 152.6 66.0346 151.333 68.168 148.8C69.6346 147.067 70.968 145.467 72.168 144C73.5013 142.4 74.6346 141.733 75.568 142C77.4346 142 78.7013 142.533 79.368 143.6C80.0346 144.533 80.4346 145.667 80.568 147C80.7013 148.333 80.8346 149.533 80.968 150.6C81.9013 154.733 84.0346 158.133 87.368 160.8C90.8346 163.6 95.6346 165 101.768 165C108.301 165 114.168 163.933 119.368 161.8C124.568 159.667 128.701 156.733 131.768 153C134.835 149.133 136.368 144.8 136.368 140C136.368 136.667 135.568 133.2 133.968 129.6C132.368 125.867 129.835 122.133 126.368 118.4C123.435 114.933 120.168 111.667 116.568 108.6C112.968 105.533 109.835 102.733 107.168 100.2C104.635 97.5333 103.368 95.2667 103.368 93.4C103.368 91.8 104.435 90.4 106.568 89.2C108.701 87.8667 110.435 87.2 111.768 87.2C114.835 87.2 118.701 86.6 123.368 85.4C128.168 84.2 133.101 82.6 138.168 80.6C143.235 78.4667 147.835 76.1333 151.968 73.6C156.235 71.0667 159.368 68.5333 161.368 66C162.568 64.5333 163.501 63 164.168 61.4C164.968 59.6667 165.368 58 165.368 56.4C165.368 53.8667 164.235 51.6 161.968 49.6C159.835 47.4667 156.168 45.9333 150.968 45C149.501 44.6 147.768 44.3333 145.768 44.2C143.768 44.0667 141.635 44 139.368 44C132.568 44 124.701 44.6667 115.768 46C106.835 47.2 97.768 49 88.568 51.4C79.368 53.8 70.768 56.8 62.768 60.4C54.768 64 48.168 68.2 42.968 73C37.9013 77.6667 35.0346 82.8667 34.368 88.6C34.1013 91.9333 34.9013 94.4667 36.768 96.2C38.6346 97.9333 40.8346 99.2667 43.368 100.2C45.9013 101 47.9013 101.8 49.368 102.6C50.568 103.133 51.168 103.667 51.168 104.2C51.168 104.867 50.4346 105.2 48.968 105.2C47.368 105.2 45.368 104.8 42.968 104C40.568 103.2 38.168 102 35.768 100.4C33.5013 98.6667 31.6346 96.6 30.168 94.2C28.7013 91.8 28.168 89 28.568 85.8C28.568 85.5333 28.5013 85.0667 28.368 84.4C28.2346 83.6 28.168 83 28.168 82.6C28.568 78.3333 30.368 74.2667 33.568 70.4C36.9013 66.5333 40.768 63 45.168 59.8C49.7013 56.6 53.9013 53.9333 57.768 51.8C62.0346 49.5333 67.168 47.4667 73.168 45.6C79.168 43.6 85.568 41.8667 92.368 40.4C99.3013 38.9333 106.301 37.8 113.368 37C120.435 36.0667 127.035 35.6 133.168 35.6C139.701 35.6 145.435 36.1333 150.368 37.2C157.035 38.6667 162.168 41.2667 165.768 45C169.368 48.7333 171.168 52.8667 171.168 57.4C171.035 62.3333 169.501 66.6667 166.568 70.4C163.768 74 160.101 77.0667 155.568 79.6C151.035 82.1333 146.101 84.2667 140.768 86C135.568 87.6 130.435 88.8 125.368 89.6C120.301 90.4 115.901 90.8667 112.168 91C117.768 94.3333 123.301 98.0667 128.768 102.2C134.368 106.2 138.968 110.6 142.568 115.4C146.301 120.2 148.168 125.467 148.168 131.2C148.168 134.4 147.435 137.733 145.968 141.2C144.635 144.533 142.435 148.133 139.368 152C135.368 156.933 129.768 160.867 122.568 163.8C115.501 166.733 107.901 168.2 99.768 168.2Z" fill="white"/>
</g>
<defs>
<clipPath id="clip0_9_12">
<rect width="200" height="200" fill="white"/>
</clipPath>
</defs>
</svg>
